<svg width="222" height="147" viewBox="0 0 222 147" fill="none" xmlns="http://www.w3.org/2000/svg">
<path d="M204.265 87.0657L215.874 56.8112C216.783 54.4439 216.746 51.7475 215.001 49.8452C211.637 46.178 203.872 40.7243 187.363 40.5472C166.536 40.3238 141.632 66.0202 133.983 74.5038C132.432 76.2234 131.644 78.4652 131.631 80.8148C131.6 86.2018 131.436 96.3618 130.677 102.759C129.94 108.976 132.181 107.224 133.885 105.164C135.119 103.672 136.566 102.346 138.36 101.615C145.664 98.6402 165.87 90.9545 177.481 91.902C180.995 92.1888 184.144 92.8601 186.884 93.6996C193.44 95.7087 201.831 93.4086 204.265 87.0657Z" fill="#389C9B"/>
<path d="M198.528 100.576L216.979 72.0518C218.37 69.9011 218.878 67.1814 217.537 64.8542C214.893 60.2667 208.114 52.6632 191.217 48.2503C169.987 42.7058 139.247 62.6501 129.774 69.3115C127.882 70.6418 126.636 72.7012 126.148 75.0591C125.015 80.5312 122.758 90.8896 120.667 97.2366C118.561 103.627 122.709 106.248 125.716 107.287C127.466 107.891 129.277 107.489 130.895 106.708C137.987 103.285 158.798 94.1102 170.612 98.0913C174.527 99.4109 177.886 101.1 180.686 102.839C186.497 106.449 194.91 106.169 198.528 100.576Z" fill="#FFD89D"/>
<path d="M192.192 109.219L212.483 77.8511C213.874 75.7003 214.382 72.9853 213.071 70.6406C210.353 65.7799 203.19 57.4843 184.881 52.7029C162.115 46.7571 129.088 68.3118 119.209 75.2797C117.319 76.6128 116.063 78.6833 115.576 81.0416C114.385 86.8079 111.944 98.0582 109.685 104.915C107.399 111.853 112.027 114.623 115.244 115.687C117 116.269 118.804 115.874 120.42 115.091C127.814 111.509 150.234 101.552 162.919 105.826C167.457 107.356 171.293 109.35 174.426 111.374C180.178 115.09 188.574 114.812 192.192 109.219Z" fill="#389C9B"/>
<path d="M45.6371 43.8877L68.9482 11.9081C71.5442 8.3467 75.8488 7.12877 79.2187 9.65739C85.1049 14.0741 94.7687 23.1356 105.372 40.459C119.778 63.9956 111.701 89.5424 108.613 97.3951C107.973 99.022 106.884 100.334 105.562 101.324C101.166 104.615 90.6473 112.641 84.7764 118.387C78.8448 124.191 74.1456 116.126 72.048 111.372C71.1903 109.428 71.1506 107.19 71.3264 105.017C71.7475 99.8126 71.3675 89.1541 63.6084 78.0602C58.4428 70.6746 52.2908 64.4698 47.4153 60.1009C43.0328 56.1738 42.0435 48.8177 45.6371 43.8877Z" fill="#389C9B"/>
<path d="M155.435 59.628C155.44 59.6198 155.443 59.616 155.443 59.616L155.435 59.628C155.302 59.8245 153.722 62.5205 158.035 73.8008C159.576 77.8287 160.303 78.7847 160.303 78.7847L145.399 73.8008L155.435 59.628Z" fill="#FFD89D"/>
<path d="M16.15 59.0315L37.5399 21.3576C39.439 18.0128 42.5144 15.6486 46.2299 15.4272C55.2499 14.8897 73.7976 16.0879 93.7309 30.9176C115.874 47.3915 118.049 70.8693 117.992 79.9481C117.977 82.4553 117.11 84.7568 115.792 86.7498C111.896 92.6409 103.386 105.828 99.6241 114.15C98.2897 117.101 96.3762 119.824 94.2574 122.246C87.94 129.468 77.1209 124.23 72.4164 115.109C68.6279 107.764 63.2626 100.021 56.0788 95.3815C48.7483 90.6478 37.3384 86.9041 27.1189 84.2357C16.7061 81.5168 10.7673 68.5119 16.15 59.0315Z" fill="#FFD89D"/>
<path d="M71.4331 112.744C73.557 111.587 76.9206 109.465 78.8437 106.766C80.643 104.241 79.5633 98.3772 78.6366 94.7276C78.1614 92.8563 78.0151 92.3667 79.7336 93.0883C82.1312 94.095 86.0191 95.3435 88.0041 95.9624C88.8355 96.2216 89.6425 96.5784 90.3511 97.1237C92.6649 98.9044 97.7588 103.634 96.6962 110.108C95.9901 114.409 93.9165 117.299 92.0778 119.087C90.2202 120.893 87.4576 120.89 84.9902 119.866L68.5068 113.024C68.1673 112.928 67.8333 112.789 67.5123 112.612L68.5068 113.024C69.4979 113.306 70.5358 113.232 71.4331 112.744Z" fill="#FFD89D"/>
<mask id="path-8-outside-1_455_2" maskUnits="userSpaceOnUse" x="48.7239" y="37.8489" width="110" height="94" fill="black">
<rect fill="white" x="48.7239" y="37.8489" width="110" height="94"/>
<path fill-rule="evenodd" clip-rule="evenodd" d="M138.885 72.4539C146.084 72.4539 151.92 66.0504 151.92 58.1514C151.92 50.2523 146.084 43.8489 138.885 43.8489C134.799 43.8489 131.152 45.9117 128.762 49.1401C128.601 49.3265 128.445 49.53 128.294 49.7515C127.205 51.3574 126.454 52.2636 125.548 53.3578L125.548 53.3579C125.02 53.995 124.439 54.6958 123.708 55.6357C120.749 59.4413 117.357 62.5987 113.117 63.1322L113.013 63.6349C110.421 64.2467 107.927 65.2705 105.709 66.6741C100.913 69.6835 97.0719 77.9004 93.1164 86.3629C88.6545 95.9089 84.0466 105.767 77.7565 108.815C70.5643 112.301 62.8606 109.512 58.7391 108.02C55.3051 106.777 54.3581 106.434 58.2663 111.371C66.865 122.234 81.4097 124.86 85.0001 125.144C104 126.644 110.5 123.644 117 120.644C124.68 117.1 135.352 109.655 138.815 97.3157C141.858 86.4705 141.393 78.171 137.782 72.4034C138.146 72.4368 138.513 72.4539 138.885 72.4539Z"/>
</mask>
<path fill-rule="evenodd" clip-rule="evenodd" d="M138.885 72.4539C146.084 72.4539 151.92 66.0504 151.92 58.1514C151.92 50.2523 146.084 43.8489 138.885 43.8489C134.799 43.8489 131.152 45.9117 128.762 49.1401C128.601 49.3265 128.445 49.53 128.294 49.7515C127.205 51.3574 126.454 52.2636 125.548 53.3578L125.548 53.3579C125.02 53.995 124.439 54.6958 123.708 55.6357C120.749 59.4413 117.357 62.5987 113.117 63.1322L113.013 63.6349C110.421 64.2467 107.927 65.2705 105.709 66.6741C100.913 69.6835 97.0719 77.9004 93.1164 86.3629C88.6545 95.9089 84.0466 105.767 77.7565 108.815C70.5643 112.301 62.8606 109.512 58.7391 108.02C55.3051 106.777 54.3581 106.434 58.2663 111.371C66.865 122.234 81.4097 124.86 85.0001 125.144C104 126.644 110.5 123.644 117 120.644C124.68 117.1 135.352 109.655 138.815 97.3157C141.858 86.4705 141.393 78.171 137.782 72.4034C138.146 72.4368 138.513 72.4539 138.885 72.4539Z" fill="#389C9B"/>
<path d="M125.928 47.9074L121.433 53.6755L126.165 57.3637L130.661 51.5956L125.928 47.9074ZM128.762 49.1401L133.3 53.0654L133.449 52.8932L133.584 52.7101L128.762 49.1401ZM128.294 49.7515L123.329 46.3824L123.329 46.3825L128.294 49.7515ZM125.548 53.3578L120.927 49.5306L120.849 49.6245L120.775 49.7216L125.548 53.3578ZM125.548 53.3579L130.168 57.1851L130.246 57.0912L130.32 56.9941L125.548 53.3579ZM123.708 55.6357L128.445 59.3193L128.445 59.3193L123.708 55.6357ZM113.117 63.1322L112.368 57.1792L108.119 57.714L107.244 61.9068L113.117 63.1322ZM113.013 63.6349L114.391 69.4744L118.106 68.5974L118.886 64.8603L113.013 63.6349ZM105.709 66.6741L108.898 71.7564L108.907 71.7505L108.917 71.7444L105.709 66.6741ZM93.1164 86.3629L87.6809 83.8223L87.6809 83.8223L93.1164 86.3629ZM77.7565 108.815L80.3731 114.215L80.3731 114.215L77.7565 108.815ZM58.7391 108.02L56.6968 113.662L56.6969 113.662L58.7391 108.02ZM58.2663 111.371L62.9707 107.647L62.9707 107.647L58.2663 111.371ZM85.0001 125.144L84.5278 131.125L84.5278 131.125L85.0001 125.144ZM117 120.644L114.486 115.196L114.486 115.196L117 120.644ZM138.815 97.3157L133.038 95.6945L133.038 95.6945L138.815 97.3157ZM137.782 72.4034L138.331 66.4286L126.268 65.3195L132.696 75.5872L137.782 72.4034ZM145.92 58.1514C145.92 63.2728 142.259 66.4539 138.885 66.4539V78.4539C149.91 78.4539 157.92 68.8281 157.92 58.1514H145.92ZM138.885 49.8489C142.259 49.8489 145.92 53.03 145.92 58.1514H157.92C157.92 47.4747 149.91 37.8489 138.885 37.8489V49.8489ZM133.584 52.7101C134.972 50.8351 136.908 49.8489 138.885 49.8489V37.8489C132.689 37.8489 127.331 40.9884 123.94 45.57L133.584 52.7101ZM133.259 53.1206C133.285 53.0829 133.299 53.0662 133.3 53.0654L124.224 45.2148C123.902 45.5868 123.605 45.977 123.329 46.3824L133.259 53.1206ZM130.169 57.1851C131.106 56.0534 132.004 54.9699 133.259 53.1206L123.329 46.3825C122.405 47.7449 121.802 48.4737 120.927 49.5306L130.169 57.1851ZM130.32 56.9941L130.32 56.9941L120.775 49.7216L120.775 49.7216L130.32 56.9941ZM128.445 59.3193C129.115 58.4577 129.645 57.8176 130.168 57.1851L120.927 49.5307C120.395 50.1723 119.764 50.9339 118.972 51.952L128.445 59.3193ZM113.867 69.0853C120.643 68.2325 125.332 63.3218 128.445 59.3193L118.972 51.952C116.166 55.5608 114.072 56.9648 112.368 57.1792L113.867 69.0853ZM118.886 64.8603L118.991 64.3577L107.244 61.9068L107.139 62.4094L118.886 64.8603ZM108.917 71.7444C110.54 70.7177 112.409 69.9423 114.391 69.4744L111.634 57.7953C108.432 58.5511 105.315 59.8234 102.501 61.6037L108.917 71.7444ZM98.552 88.9036C100.562 84.6036 102.387 80.7122 104.268 77.5182C106.225 74.1946 107.781 72.457 108.898 71.7564L102.52 61.5917C98.8402 63.9006 96.0783 67.7761 93.9273 71.429C91.6999 75.2114 89.6266 79.6597 87.6809 83.8223L98.552 88.9036ZM80.3731 114.215C85.1194 111.915 88.5925 107.442 91.226 103.18C93.9412 98.7866 96.3585 93.5964 98.552 88.9036L87.6809 83.8223C85.4125 88.6753 83.2948 93.1874 81.018 96.8716C78.6596 100.688 76.6837 102.668 75.1399 103.416L80.3731 114.215ZM56.6969 113.662C60.5049 115.04 70.6016 118.95 80.3731 114.215L75.1399 103.416C70.527 105.652 65.2163 103.984 60.7814 102.379L56.6969 113.662ZM62.9707 107.647C62.001 106.422 61.5007 105.732 61.277 105.379C61.1504 105.179 61.2683 105.328 61.4081 105.699C61.481 105.893 61.6364 106.345 61.6978 106.972C61.7593 107.599 61.7551 108.711 61.1753 109.939C59.7712 112.914 56.9073 113.204 56.2827 113.228C55.8534 113.245 55.5386 113.202 55.4113 113.183C55.3348 113.171 55.278 113.16 55.2446 113.153C55.2107 113.146 55.1912 113.141 55.1886 113.14C55.1868 113.14 55.2216 113.149 55.3047 113.174C55.3858 113.2 55.4918 113.234 55.6301 113.282C55.9168 113.38 56.2536 113.502 56.6968 113.662L60.7814 102.379C60.0515 102.114 59.013 101.731 58.1452 101.51C57.7597 101.412 56.866 101.196 55.8171 101.237C54.8836 101.273 51.8163 101.654 50.3234 104.817C49.1588 107.285 50.0208 109.511 50.1778 109.928C50.4676 110.698 50.8594 111.358 51.1399 111.801C51.7305 112.733 52.5774 113.852 53.5619 115.095L62.9707 107.647ZM85.4723 119.163C84.2368 119.065 80.2943 118.463 75.7266 116.649C71.1696 114.838 66.4055 111.986 62.9707 107.647L53.5619 115.095C58.7258 121.619 65.5334 125.511 71.296 127.801C77.048 130.086 82.173 130.939 84.5278 131.125L85.4723 119.163ZM114.486 115.196C111.282 116.675 108.592 117.903 104.54 118.692C100.422 119.494 94.6238 119.885 85.4723 119.163L84.5278 131.125C94.3763 131.903 101.328 131.544 106.835 130.471C112.408 129.385 116.218 127.613 119.514 126.092L114.486 115.196ZM133.038 95.6945C130.274 105.545 121.518 111.95 114.486 115.196L119.514 126.092C127.841 122.249 140.43 113.766 144.592 98.9368L133.038 95.6945ZM132.696 75.5872C135.007 79.2782 135.881 85.5637 133.038 95.6945L144.592 98.9368C147.836 87.3774 147.778 77.0638 142.867 69.2196L132.696 75.5872ZM138.885 66.4539C138.697 66.4539 138.513 66.4453 138.331 66.4286L137.233 78.3782C137.778 78.4284 138.33 78.4539 138.885 78.4539V66.4539Z" fill="#FFD89D" mask="url(#path-8-outside-1_455_2)"/>
<path d="M25.4072 67.6973L48.1184 25.8024C49.5432 23.1741 52.0703 21.4571 55.0167 21.7074C61.5348 22.2612 74.6889 24.9008 93.0523 36.0146C116.351 50.1152 115.937 75.6558 115.398 82.3185C115.309 83.41 114.984 84.417 114.51 85.3691C112.31 89.7798 105.612 103.426 102.554 112.068C100.29 118.468 93.7824 118.552 88.6237 117.45C84.3825 116.545 81.9288 112.035 81.1764 107.55C80.0842 101.04 76.7953 91.9447 67.1913 86.9836C60.1024 83.3217 48.1052 83.5542 37.265 84.8596C28.6152 85.9013 21.1641 75.5243 25.4072 67.6973Z" fill="#389C9B"/>
<path d="M151.508 61.564C151.511 61.5592 151.513 61.5569 151.513 61.5569L151.508 61.564C151.424 61.6804 150.431 63.2769 153.142 69.9568C154.111 72.342 154.568 72.9081 154.568 72.9081L145.199 69.9568L151.508 61.564Z" fill="#389C9B"/>
<path d="M81.1871 123.013L82.4016 123.594C84.3139 124.508 86.4702 124.388 87.8322 122.765C89.1721 121.169 90.8974 118.591 92.5376 114.604C94.9572 108.722 92.5992 103.861 91.073 101.583C90.4206 100.609 89.4932 99.931 88.5081 99.4014C86.9264 98.5511 84.4474 97.173 82.9032 96.09C80.3153 94.2749 79.6755 92.6641 78.5 95.144C77.077 98.1459 81.7291 103.074 79.5 107.644C76.9349 112.903 76.0351 120.55 81.1871 123.013Z" fill="#389C9B"/>
<path d="M76.5 105.644C71.715 103.904 65.038 99.8934 61.4073 98.2215C60.5868 97.8437 59.615 98.1491 59.4863 99.0228C59.1157 101.54 61.0717 104.756 61.7641 105.8C61.917 106.031 62.1217 106.219 62.3713 106.338C63.1247 106.699 65.019 107.453 68 107.644C71.5271 107.871 79.8487 106.862 76.5 105.644Z" fill="#389C9B"/>
</svg>
